# Blender 4.5.3 LTS
# www.blender.org
o SilhouetteTargetMesh
v 0.000000 1.940000 0.010000
v 0.334881 0.753433 0.010000
v 0.247486 0.581941 0.010000
v 0.159363 0.000000 0.010000
v 0.000000 0.000000 0.010000
v 0.088091 1.515353 0.010000
v 0.334881 1.268563 0.010000
v 0.190424 1.487089 0.010000
v 0.299835 1.380050 0.010000
v 0.254173 1.442722 0.010000
v 0.315916 0.642614 0.010000
v 0.037606 1.940000 0.010000
v 0.170022 1.807584 0.010000
v 0.103814 1.922260 0.010000
v 0.152282 1.873792 0.010000
v 0.153190 1.582075 0.010000
v 0.170022 1.623432 0.010000
v -0.334881 0.753433 0.010000
v -0.247486 0.581941 0.010000
v -0.159363 0.000000 0.010000
v -0.088091 1.515353 0.010000
v -0.334881 1.268563 0.010000
v -0.190424 1.487089 0.010000
v -0.299835 1.380050 0.010000
v -0.254173 1.442722 0.010000
v -0.315916 0.642614 0.010000
v -0.037606 1.940000 0.010000
v -0.170022 1.807584 0.010000
v -0.103814 1.922260 0.010000
v -0.152282 1.873792 0.010000
v -0.153190 1.582075 0.010000
v -0.170022 1.623432 0.010000
v 0.044046 1.515353 0.010000
v 0.000000 1.515353 0.010000
v -0.044046 1.515353 0.010000
v 0.058337 1.591899 0.010000
v 0.065914 1.650528 0.010000
v 0.065349 1.791161 0.010000
v 0.056044 1.863690 0.010000
v 0.000000 1.593177 0.010000
v 0.000000 1.654952 0.010000
v 0.000000 1.788480 0.010000
v 0.000000 1.862376 0.010000
v -0.058337 1.591899 0.010000
v -0.065914 1.650528 0.010000
v -0.065349 1.791161 0.010000
v -0.056044 1.863690 0.010000
v -0.079681 0.000000 0.010000
v 0.079681 0.000000 0.010000
v 0.095170 1.487089 0.010000
v 0.127019 1.442722 0.010000
v 0.149833 1.380050 0.010000
v 0.167343 1.268563 0.010000
v 0.167353 0.753433 0.010000
v 0.157881 0.642614 0.010000
v 0.123695 0.581941 0.010000
v 0.000000 1.487089 0.010000
v 0.000000 1.442722 0.010000
v 0.000000 1.380050 0.010000
v 0.000000 1.268563 0.010000
v 0.000000 0.753433 0.010000
v 0.000000 0.642614 0.010000
v -0.000000 0.581941 0.010000
v -0.095170 1.487089 0.010000
v -0.127019 1.442722 0.010000
v -0.149833 1.380050 0.010000
v -0.167343 1.268563 0.010000
v -0.167353 0.753433 0.010000
v -0.157881 0.642614 0.010000
v -0.123695 0.581941 0.010000
v 0.315916 0.642614 -0.010000
v 0.334881 0.753433 -0.010000
v 0.159363 0.000000 -0.010000
v 0.247486 0.581941 -0.010000
v 0.079681 0.000000 -0.010000
v 0.334881 1.268563 -0.010000
v 0.190424 1.487089 -0.010000
v 0.254173 1.442722 -0.010000
v 0.299835 1.380050 -0.010000
v 0.088091 1.515353 -0.010000
v 0.037606 1.940000 -0.010000
v 0.103814 1.922260 -0.010000
v 0.152282 1.873792 -0.010000
v 0.170022 1.807584 -0.010000
v 0.000000 1.940000 -0.010000
v 0.153190 1.582075 -0.010000
v 0.170022 1.623432 -0.010000
v -0.315916 0.642614 -0.010000
v -0.334881 0.753433 -0.010000
v -0.159363 0.000000 -0.010000
v -0.247486 0.581941 -0.010000
v -0.079681 0.000000 -0.010000
v -0.334881 1.268563 -0.010000
v -0.190424 1.487089 -0.010000
v -0.254173 1.442722 -0.010000
v -0.299835 1.380050 -0.010000
v -0.088091 1.515353 -0.010000
v -0.037606 1.940000 -0.010000
v -0.103814 1.922260 -0.010000
v -0.152282 1.873792 -0.010000
v -0.170022 1.807584 -0.010000
v -0.153190 1.582075 -0.010000
v -0.170022 1.623432 -0.010000
v -0.044046 1.515353 -0.010000
v 0.044046 1.515353 -0.010000
v 0.000000 1.515353 -0.010000
v 0.058337 1.591899 -0.010000
v 0.000000 1.593177 -0.010000
v -0.058337 1.591899 -0.010000
v 0.065914 1.650528 -0.010000
v 0.000000 1.654952 -0.010000
v -0.065914 1.650528 -0.010000
v 0.065349 1.791161 -0.010000
v 0.000000 1.788480 -0.010000
v -0.065349 1.791161 -0.010000
v 0.056044 1.863690 -0.010000
v 0.000000 1.862376 -0.010000
v -0.056044 1.863690 -0.010000
v 0.000000 0.000000 -0.010000
v 0.095170 1.487089 -0.010000
v 0.000000 1.487089 -0.010000
v -0.095170 1.487089 -0.010000
v 0.127019 1.442722 -0.010000
v 0.000000 1.442722 -0.010000
v -0.127019 1.442722 -0.010000
v 0.149833 1.380050 -0.010000
v 0.000000 1.380050 -0.010000
v -0.149833 1.380050 -0.010000
v 0.167343 1.268563 -0.010000
v 0.000000 1.268563 -0.010000
v -0.167343 1.268563 -0.010000
v 0.167353 0.753433 -0.010000
v 0.000000 0.753433 -0.010000
v -0.167353 0.753433 -0.010000
v 0.157881 0.642614 -0.010000
v 0.000000 0.642614 -0.010000
v -0.157881 0.642614 -0.010000
v 0.123695 0.581941 -0.010000
v -0.000000 0.581941 -0.010000
v -0.123695 0.581941 -0.010000
vn -0.0000 -0.0000 1.0000
vn -0.0000 -0.0000 -1.0000
vn -0.6634 -0.7482 -0.0000
vn 0.9659 0.2588 -0.0000
vn -0.2588 0.9659 -0.0000
vn -0.0000 1.0000 -0.0000
vn -0.7071 0.7071 -0.0000
vn 0.9262 -0.3770 -0.0000
vn -0.0000 -1.0000 -0.0000
vn 0.9857 -0.1687 -0.0000
vn -0.9659 0.2588 -0.0000
vn 0.7158 -0.6983 -0.0000
vn 0.9887 -0.1497 -0.0000
vn 1.0000 -0.0000 -0.0000
vn -0.9262 -0.3770 -0.0000
vn -0.9857 -0.1687 -0.0000
vn -0.7158 -0.6983 -0.0000
vn -0.9887 -0.1497 -0.0000
vn 0.5712 0.8208 -0.0000
vn -1.0000 -0.0000 -0.0000
vn 0.8082 0.5889 -0.0000
vn 0.2662 0.9639 -0.0000
vn -0.5712 0.8208 -0.0000
vn 0.9540 0.2999 -0.0000
vn -0.8082 0.5889 -0.0000
vn 0.6634 -0.7482 -0.0000
vn -0.2662 0.9639 -0.0000
vn 0.2588 0.9659 -0.0000
vn -0.9540 0.2999 -0.0000
vn 0.7071 0.7071 -0.0000
vt 0.000000 0.000000
s 0
f 16/1/1 36/1/1 33/1/1 6/1/1
f 36/1/1 40/1/1 34/1/1 33/1/1
f 40/1/1 44/1/1 35/1/1 34/1/1
f 44/1/1 31/1/1 21/1/1 35/1/1
f 17/1/1 37/1/1 36/1/1 16/1/1
f 37/1/1 41/1/1 40/1/1 36/1/1
f 41/1/1 45/1/1 44/1/1 40/1/1
f 45/1/1 32/1/1 31/1/1 44/1/1
f 13/1/1 38/1/1 37/1/1 17/1/1
f 38/1/1 42/1/1 41/1/1 37/1/1
f 42/1/1 46/1/1 45/1/1 41/1/1
f 46/1/1 28/1/1 32/1/1 45/1/1
f 15/1/1 39/1/1 38/1/1 13/1/1
f 39/1/1 43/1/1 42/1/1 38/1/1
f 43/1/1 47/1/1 46/1/1 42/1/1
f 47/1/1 30/1/1 28/1/1 46/1/1
f 14/1/1 12/1/1 39/1/1 15/1/1
f 12/1/1 1/1/1 43/1/1 39/1/1
f 1/1/1 27/1/1 47/1/1 43/1/1
f 27/1/1 29/1/1 30/1/1 47/1/1
f 6/1/1 33/1/1 50/1/1 8/1/1
f 33/1/1 34/1/1 57/1/1 50/1/1
f 34/1/1 35/1/1 64/1/1 57/1/1
f 35/1/1 21/1/1 23/1/1 64/1/1
f 8/1/1 50/1/1 51/1/1 10/1/1
f 50/1/1 57/1/1 58/1/1 51/1/1
f 57/1/1 64/1/1 65/1/1 58/1/1
f 64/1/1 23/1/1 25/1/1 65/1/1
f 10/1/1 51/1/1 52/1/1 9/1/1
f 51/1/1 58/1/1 59/1/1 52/1/1
f 58/1/1 65/1/1 66/1/1 59/1/1
f 65/1/1 25/1/1 24/1/1 66/1/1
f 9/1/1 52/1/1 53/1/1 7/1/1
f 52/1/1 59/1/1 60/1/1 53/1/1
f 59/1/1 66/1/1 67/1/1 60/1/1
f 66/1/1 24/1/1 22/1/1 67/1/1
f 7/1/1 53/1/1 54/1/1 2/1/1
f 53/1/1 60/1/1 61/1/1 54/1/1
f 60/1/1 67/1/1 68/1/1 61/1/1
f 67/1/1 22/1/1 18/1/1 68/1/1
f 2/1/1 54/1/1 55/1/1 11/1/1
f 54/1/1 61/1/1 62/1/1 55/1/1
f 61/1/1 68/1/1 69/1/1 62/1/1
f 68/1/1 18/1/1 26/1/1 69/1/1
f 11/1/1 55/1/1 56/1/1 3/1/1
f 55/1/1 62/1/1 63/1/1 56/1/1
f 62/1/1 69/1/1 70/1/1 63/1/1
f 69/1/1 26/1/1 19/1/1 70/1/1
f 3/1/1 56/1/1 49/1/1 4/1/1
f 56/1/1 63/1/1 5/1/1 49/1/1
f 63/1/1 70/1/1 48/1/1 5/1/1
f 70/1/1 19/1/1 20/1/1 48/1/1
f 86/1/2 80/1/2 105/1/2 107/1/2
f 107/1/2 105/1/2 106/1/2 108/1/2
f 108/1/2 106/1/2 104/1/2 109/1/2
f 109/1/2 104/1/2 97/1/2 102/1/2
f 87/1/2 86/1/2 107/1/2 110/1/2
f 110/1/2 107/1/2 108/1/2 111/1/2
f 111/1/2 108/1/2 109/1/2 112/1/2
f 112/1/2 109/1/2 102/1/2 103/1/2
f 84/1/2 87/1/2 110/1/2 113/1/2
f 113/1/2 110/1/2 111/1/2 114/1/2
f 114/1/2 111/1/2 112/1/2 115/1/2
f 115/1/2 112/1/2 103/1/2 101/1/2
f 83/1/2 84/1/2 113/1/2 116/1/2
f 116/1/2 113/1/2 114/1/2 117/1/2
f 117/1/2 114/1/2 115/1/2 118/1/2
f 118/1/2 115/1/2 101/1/2 100/1/2
f 82/1/2 83/1/2 116/1/2 81/1/2
f 81/1/2 116/1/2 117/1/2 85/1/2
f 85/1/2 117/1/2 118/1/2 98/1/2
f 98/1/2 118/1/2 100/1/2 99/1/2
f 80/1/2 77/1/2 120/1/2 105/1/2
f 105/1/2 120/1/2 121/1/2 106/1/2
f 106/1/2 121/1/2 122/1/2 104/1/2
f 104/1/2 122/1/2 94/1/2 97/1/2
f 77/1/2 78/1/2 123/1/2 120/1/2
f 120/1/2 123/1/2 124/1/2 121/1/2
f 121/1/2 124/1/2 125/1/2 122/1/2
f 122/1/2 125/1/2 95/1/2 94/1/2
f 78/1/2 79/1/2 126/1/2 123/1/2
f 123/1/2 126/1/2 127/1/2 124/1/2
f 124/1/2 127/1/2 128/1/2 125/1/2
f 125/1/2 128/1/2 96/1/2 95/1/2
f 79/1/2 76/1/2 129/1/2 126/1/2
f 126/1/2 129/1/2 130/1/2 127/1/2
f 127/1/2 130/1/2 131/1/2 128/1/2
f 128/1/2 131/1/2 93/1/2 96/1/2
f 76/1/2 72/1/2 132/1/2 129/1/2
f 129/1/2 132/1/2 133/1/2 130/1/2
f 130/1/2 133/1/2 134/1/2 131/1/2
f 131/1/2 134/1/2 89/1/2 93/1/2
f 72/1/2 71/1/2 135/1/2 132/1/2
f 132/1/2 135/1/2 136/1/2 133/1/2
f 133/1/2 136/1/2 137/1/2 134/1/2
f 134/1/2 137/1/2 88/1/2 89/1/2
f 71/1/2 74/1/2 138/1/2 135/1/2
f 135/1/2 138/1/2 139/1/2 136/1/2
f 136/1/2 139/1/2 140/1/2 137/1/2
f 137/1/2 140/1/2 91/1/2 88/1/2
f 74/1/2 73/1/2 75/1/2 138/1/2
f 138/1/2 75/1/2 119/1/2 139/1/2
f 139/1/2 119/1/2 92/1/2 140/1/2
f 140/1/2 92/1/2 90/1/2 91/1/2
f 26/1/3 88/1/3 91/1/3 19/1/3
f 13/1/4 84/1/4 83/1/4 15/1/4
f 27/1/5 98/1/5 99/1/5 29/1/5
f 12/1/6 81/1/6 85/1/6 1/1/6
f 29/1/7 99/1/7 100/1/7 30/1/7
f 16/1/8 86/1/8 87/1/8 17/1/8
f 48/1/9 92/1/9 119/1/9 5/1/9
f 11/1/10 71/1/10 72/1/10 2/1/10
f 30/1/11 100/1/11 101/1/11 28/1/11
f 6/1/12 80/1/12 86/1/12 16/1/12
f 5/1/9 119/1/9 75/1/9 49/1/9
f 4/1/13 73/1/13 74/1/13 3/1/13
f 1/1/6 85/1/6 98/1/6 27/1/6
f 17/1/14 87/1/14 84/1/14 13/1/14
f 49/1/9 75/1/9 73/1/9 4/1/9
f 32/1/15 103/1/15 102/1/15 31/1/15
f 18/1/16 89/1/16 88/1/16 26/1/16
f 2/1/14 72/1/14 76/1/14 7/1/14
f 31/1/17 102/1/17 97/1/17 21/1/17
f 19/1/18 91/1/18 90/1/18 20/1/18
f 10/1/19 78/1/19 77/1/19 8/1/19
f 28/1/20 101/1/20 103/1/20 32/1/20
f 20/1/9 90/1/9 92/1/9 48/1/9
f 9/1/21 79/1/21 78/1/21 10/1/21
f 22/1/20 93/1/20 89/1/20 18/1/20
f 8/1/22 77/1/22 80/1/22 6/1/22
f 23/1/23 94/1/23 95/1/23 25/1/23
f 7/1/24 76/1/24 79/1/24 9/1/24
f 25/1/25 95/1/25 96/1/25 24/1/25
f 3/1/26 74/1/26 71/1/26 11/1/26
f 21/1/27 97/1/27 94/1/27 23/1/27
f 14/1/28 82/1/28 81/1/28 12/1/28
f 24/1/29 96/1/29 93/1/29 22/1/29
f 15/1/30 83/1/30 82/1/30 14/1/30
