# Blender 4.5.3 LTS
# www.blender.org
o SmallSplash
v 0.000000 0.000000 -0.095000
v 0.000000 0.200000 -0.500000
v 0.036355 0.000000 -0.087769
v 0.191342 0.200000 -0.461940
v 0.067175 0.000000 -0.067175
v 0.353553 0.200000 -0.353553
v 0.087769 0.000000 -0.036355
v 0.461940 0.200000 -0.191342
v 0.095000 0.000000 -0.000000
v 0.500000 0.200000 -0.000000
v 0.087769 0.000000 0.036355
v 0.461940 0.200000 0.191342
v 0.067175 0.000000 0.067175
v 0.353553 0.200000 0.353553
v 0.036355 0.000000 0.087769
v 0.191342 0.200000 0.461940
v 0.000000 0.000000 0.095000
v 0.000000 0.200000 0.500000
v -0.036355 0.000000 0.087769
v -0.191342 0.200000 0.461940
v -0.067175 0.000000 0.067175
v -0.353553 0.200000 0.353553
v -0.087769 0.000000 0.036355
v -0.461940 0.200000 0.191342
v -0.095000 0.000000 -0.000000
v -0.500000 0.200000 -0.000000
v -0.087769 0.000000 -0.036355
v -0.461940 0.200000 -0.191342
v -0.067175 0.000000 -0.067175
v -0.353553 0.200000 -0.353553
v -0.036355 0.000000 -0.087769
v -0.191342 0.200000 -0.461940
v 0.000000 0.127495 -0.303678
v 0.000000 0.052807 -0.165883
v 0.063481 0.052807 -0.153255
v 0.116212 0.127495 -0.280562
v 0.117297 0.052807 -0.117297
v 0.214733 0.127495 -0.214733
v 0.153255 0.052807 -0.063481
v 0.280562 0.127495 -0.116212
v 0.165883 0.052807 -0.000000
v 0.303678 0.127495 -0.000000
v 0.153255 0.052807 0.063481
v 0.280562 0.127495 0.116212
v 0.117297 0.052807 0.117297
v 0.214733 0.127495 0.214733
v 0.063481 0.052807 0.153255
v 0.116212 0.127495 0.280562
v 0.000000 0.052807 0.165883
v 0.000000 0.127495 0.303678
v -0.063480 0.052807 0.153255
v -0.116212 0.127495 0.280562
v -0.117297 0.052807 0.117297
v -0.214733 0.127495 0.214733
v -0.153255 0.052807 0.063481
v -0.280562 0.127495 0.116212
v -0.165883 0.052807 -0.000000
v -0.303678 0.127495 -0.000000
v -0.153255 0.052807 -0.063481
v -0.280562 0.127495 -0.116213
v -0.117297 0.052807 -0.117297
v -0.214733 0.127495 -0.214733
v -0.063480 0.052807 -0.153255
v -0.116212 0.127495 -0.280562
vn -0.0000 -0.8019 -0.5974
vn -0.0000 -0.9381 -0.3464
vn 0.2286 -0.8019 -0.5519
vn 0.1326 -0.9381 -0.3201
vn 0.4224 -0.8019 -0.4224
vn 0.2450 -0.9381 -0.2450
vn 0.5519 -0.8019 -0.2286
vn 0.3201 -0.9381 -0.1326
vn 0.5974 -0.8019 -0.0000
vn 0.3464 -0.9381 -0.0000
vn 0.5519 -0.8019 0.2286
vn 0.3201 -0.9381 0.1326
vn 0.4224 -0.8019 0.4224
vn 0.2450 -0.9381 0.2450
vn 0.2286 -0.8019 0.5519
vn 0.1326 -0.9381 0.3201
vn -0.0000 -0.8019 0.5974
vn -0.0000 -0.9381 0.3464
vn -0.2286 -0.8019 0.5519
vn -0.1326 -0.9381 0.3201
vn -0.4224 -0.8019 0.4224
vn -0.2450 -0.9381 0.2450
vn -0.5519 -0.8019 0.2286
vn -0.3201 -0.9381 0.1326
vn -0.5974 -0.8019 -0.0000
vn -0.3464 -0.9381 -0.0000
vn -0.5519 -0.8019 -0.2286
vn -0.3201 -0.9381 -0.1326
vn -0.4224 -0.8019 -0.4224
vn -0.2450 -0.9381 -0.2450
vn -0.2286 -0.8019 -0.5519
vn -0.1326 -0.9381 -0.3201
vn -0.0000 -0.9143 -0.4051
vn -0.0000 -0.8468 -0.5319
vn 0.2036 -0.8468 -0.4915
vn 0.1550 -0.9143 -0.3743
vn 0.3761 -0.8468 -0.3761
vn 0.2864 -0.9143 -0.2864
vn 0.4915 -0.8468 -0.2036
vn 0.3743 -0.9143 -0.1550
vn 0.5319 -0.8468 -0.0000
vn 0.4051 -0.9143 -0.0000
vn 0.4915 -0.8468 0.2036
vn 0.3743 -0.9143 0.1550
vn 0.3761 -0.8468 0.3761
vn 0.2864 -0.9143 0.2864
vn 0.2036 -0.8468 0.4915
vn 0.1550 -0.9143 0.3743
vn -0.0000 -0.8468 0.5319
vn -0.0000 -0.9143 0.4051
vn -0.2036 -0.8468 0.4915
vn -0.1550 -0.9143 0.3743
vn -0.3761 -0.8468 0.3761
vn -0.2864 -0.9143 0.2864
vn -0.4915 -0.8468 0.2036
vn -0.3743 -0.9143 0.1550
vn -0.5319 -0.8468 -0.0000
vn -0.4051 -0.9143 -0.0000
vn -0.4915 -0.8468 -0.2036
vn -0.3743 -0.9143 -0.1550
vn -0.3761 -0.8468 -0.3761
vn -0.2864 -0.9143 -0.2864
vn -0.2036 -0.8468 -0.4915
vn -0.1550 -0.9143 -0.3743
vt 0.062500 0.637474
vt 0.000000 0.637474
vt 0.000000 0.264033
vt 0.062500 0.264033
vt 0.125000 0.637474
vt 0.125000 0.264033
vt 0.187500 0.637474
vt 0.187500 0.264033
vt 0.250000 0.637474
vt 0.250000 0.264033
vt 0.312500 0.637474
vt 0.312500 0.264033
vt 0.375000 0.637474
vt 0.375000 0.264033
vt 0.437500 0.637474
vt 0.437500 0.264033
vt 0.500000 0.637474
vt 0.500000 0.264033
vt 0.562500 0.637474
vt 0.562500 0.264033
vt 0.625000 0.637474
vt 0.625000 0.264033
vt 0.687500 0.637474
vt 0.687500 0.264033
vt 0.750000 0.637473
vt 0.750000 0.264033
vt 0.812500 0.637473
vt 0.812500 0.264033
vt 0.875000 0.637473
vt 0.875000 0.264033
vt 0.937500 0.637473
vt 0.937500 0.264033
vt 1.000000 0.637474
vt 1.000000 0.264033
vt 0.062500 1.000000
vt 0.000000 0.999999
vt 1.000000 0.000000
vt 0.937500 0.000000
vt 1.000000 0.999999
vt 0.937500 0.999999
vt 0.062500 0.000000
vt 0.000000 0.000000
vt 0.875000 0.999999
vt 0.875000 0.000000
vt 0.812500 0.999999
vt 0.812500 0.000000
vt 0.750000 0.999999
vt 0.750000 0.000000
vt 0.687500 1.000000
vt 0.687500 0.000000
vt 0.625000 1.000000
vt 0.625000 0.000000
vt 0.562500 1.000000
vt 0.562500 0.000000
vt 0.500000 1.000000
vt 0.500000 0.000000
vt 0.437500 1.000000
vt 0.437500 0.000000
vt 0.375000 1.000000
vt 0.375000 0.000000
vt 0.312500 1.000000
vt 0.312500 0.000000
vt 0.250000 1.000000
vt 0.250000 0.000000
vt 0.187500 1.000000
vt 0.187500 0.000000
vt 0.125000 1.000000
vt 0.125000 0.000000
s 1
f 64/1/64 33/2/33 34/3/34 63/4/63
f 62/5/62 64/1/64 63/4/63 61/6/61
f 60/7/60 62/5/62 61/6/61 59/8/59
f 58/9/58 60/7/60 59/8/59 57/10/57
f 56/11/56 58/9/58 57/10/57 55/12/55
f 54/13/54 56/11/56 55/12/55 53/14/53
f 52/15/52 54/13/54 53/14/53 51/16/51
f 50/17/50 52/15/52 51/16/51 49/18/49
f 48/19/48 50/17/50 49/18/49 47/20/47
f 46/21/46 48/19/48 47/20/47 45/22/45
f 44/23/44 46/21/46 45/22/45 43/24/43
f 42/25/42 44/23/44 43/24/43 41/26/41
f 40/27/40 42/25/42 41/26/41 39/28/39
f 38/29/38 40/27/40 39/28/39 37/30/37
f 36/31/36 38/29/38 37/30/37 35/32/35
f 33/33/33 36/31/36 35/32/35 34/34/34
f 64/1/64 32/35/32 2/36/2 33/2/33
f 1/37/1 34/34/34 35/32/35 3/38/3
f 33/33/33 2/39/2 4/40/4 36/31/36
f 31/41/31 63/4/63 34/3/34 1/42/1
f 36/31/36 4/40/4 6/43/6 38/29/38
f 3/38/3 35/32/35 37/30/37 5/44/5
f 38/29/38 6/43/6 8/45/8 40/27/40
f 5/44/5 37/30/37 39/28/39 7/46/7
f 40/27/40 8/45/8 10/47/10 42/25/42
f 7/46/7 39/28/39 41/26/41 9/48/9
f 42/25/42 10/47/10 12/49/12 44/23/44
f 9/48/9 41/26/41 43/24/43 11/50/11
f 44/23/44 12/49/12 14/51/14 46/21/46
f 11/50/11 43/24/43 45/22/45 13/52/13
f 46/21/46 14/51/14 16/53/16 48/19/48
f 13/52/13 45/22/45 47/20/47 15/54/15
f 48/19/48 16/53/16 18/55/18 50/17/50
f 15/54/15 47/20/47 49/18/49 17/56/17
f 50/17/50 18/55/18 20/57/20 52/15/52
f 17/56/17 49/18/49 51/16/51 19/58/19
f 52/15/52 20/57/20 22/59/22 54/13/54
f 19/58/19 51/16/51 53/14/53 21/60/21
f 54/13/54 22/59/22 24/61/24 56/11/56
f 21/60/21 53/14/53 55/12/55 23/62/23
f 56/11/56 24/61/24 26/63/26 58/9/58
f 23/62/23 55/12/55 57/10/57 25/64/25
f 58/9/58 26/63/26 28/65/28 60/7/60
f 25/64/25 57/10/57 59/8/59 27/66/27
f 60/7/60 28/65/28 30/67/30 62/5/62
f 27/66/27 59/8/59 61/6/61 29/68/29
f 62/5/62 30/67/30 32/35/32 64/1/64
f 29/68/29 61/6/61 63/4/63 31/41/31
